<svg version="1.1" id="Layer_1" xmlns="http://www.w3.org/2000/svg" xmlns:xlink="http://www.w3.org/1999/xlink" x="0px" y="0px"
	 width="100%" viewBox="0 0 144 123" enable-background="new 0 0 144 123" xml:space="preserve">
<!--<path fill="#fff" opacity="1.000000" stroke="none" -->
<!--	d="-->
<!--M1.000000,1.000000 -->
<!--	C1.000000,56.440876 1.000000,28.881754 1.000000,1.000000 -->
<!--	C10.685174,1.000000 20.373930,1.000000 30.573250,1.459179 -->
<!--	C30.861809,5.707116 31.667645,9.945381 30.241087,13.207350 -->
<!--	C23.832161,27.861996 16.710768,42.203259 10.020162,56.737564 -->
<!--	C7.897748,61.348179 6.313835,66.206680 4.119405,71.895622 -->
<!--	C8.578140,71.895622 11.406938,71.645546 14.174223,71.951614 -->
<!--	C18.848289,72.468582 21.256853,70.683220 23.190041,66.235596 -->
<!--	C28.259293,54.572922 34.013039,43.207767 39.914585,30.842859 -->
<!--	C45.212223,42.055084 50.006706,52.560230 55.155087,62.888977 -->
<!--	C56.780155,66.149208 56.530907,71.179871 61.577858,71.808342 -->
<!--	C64.858223,72.216835 68.232841,71.945885 71.562241,71.861496 -->
<!--	C74.913353,71.776543 75.564392,69.820198 74.318733,67.138634 -->
<!--	C68.608932,54.847080 62.660065,42.664356 57.098698,30.306797 -->
<!--	C52.881718,20.936518 46.426075,12.192590 48.000000,1.000000 -->
<!--	C65.020897,1.000000 82.041786,1.000000 99.577576,1.448540 -->
<!--	C100.092461,3.812398 100.092461,5.727715 100.092461,8.103460 -->
<!--	C93.497543,8.103460 87.684181,7.871723 81.910683,8.249449 -->
<!--	C80.251526,8.357996 77.600082,10.000088 77.329422,11.330765 -->
<!--	C76.661713,14.613509 77.110580,18.123365 77.110580,21.490967 -->
<!--	C98.798599,21.490967 119.676476,21.490967 140.910355,21.490967 -->
<!--	C140.910355,18.756226 140.669693,16.413322 140.959625,14.138029 -->
<!--	C141.595703,9.146363 139.373367,7.753507 134.687668,8.050739 -->
<!--	C129.272339,8.394257 123.818497,8.130650 118.000000,8.130650 -->
<!--	C118.000000,5.257490 118.000000,3.128745 118.000000,1.000000 -->
<!--	C126.964058,1.000000 135.928116,1.000000 145.000000,1.000000 -->
<!--	C145.000000,28.354141 145.000000,55.708412 144.534149,83.568375 -->
<!--	C140.071060,84.083870 136.042923,83.814491 132.092911,84.251404 -->
<!--	C130.665207,84.409317 129.200287,86.077507 128.144638,87.375549 -->
<!--	C125.799767,90.258820 124.274551,94.137596 121.403259,96.205429 -->
<!--	C110.450630,104.093330 97.509102,106.448402 84.443573,106.975227 -->
<!--	C68.936676,107.600502 53.254490,108.107544 38.248508,102.927032 -->
<!--	C31.304468,100.529747 22.623989,98.937645 20.048086,91.384697 -->
<!--	C17.470955,83.828148 12.954576,83.657501 6.990981,84.071770 -->
<!--	C5.005230,84.209709 2.997618,84.032913 1.000000,84.000000 -->
<!--M131.184189,68.892883 -->
<!--	C141.658813,63.382374 145.592392,53.880753 142.247025,42.170460 -->
<!--	C138.282288,28.292101 132.772446,24.111361 118.243614,24.004583 -->
<!--	C113.416962,23.969110 108.589851,23.996025 103.762947,23.995468 -->
<!--	C89.439781,23.993814 84.682137,27.298546 79.605667,40.774330 -->
<!--	C75.612518,51.374371 79.294952,62.818169 88.873459,67.993675 -->
<!--	C92.403206,69.900894 96.545486,71.567390 100.461235,71.692734 -->
<!--	C110.496758,72.013954 120.734406,73.197754 131.184189,68.892883 -->
<!--z"/>-->
  <g transform="scale(0.8) translate(18, 20)">
<!--    ㅅ-->
<path fill="#000" opacity="1.000000" stroke="none"
      d="
M47.532394,1.000000
	C46.426075,12.192590 52.881718,20.936518 57.098698,30.306797
	C62.660065,42.664356 68.608932,54.847080 74.318733,67.138634
	C75.564392,69.820198 74.913353,71.776543 71.562241,71.861496
	C68.232841,71.945885 64.858223,72.216835 61.577858,71.808342
	C56.530907,71.179871 56.780155,66.149208 55.155087,62.888977
	C50.006706,52.560230 45.212223,42.055084 39.914585,30.842859
	C34.013039,43.207767 28.259293,54.572922 23.190041,66.235596
	C21.256853,70.683220 18.848289,72.468582 14.174223,71.951614
	C11.406938,71.645546 8.578140,71.895622 4.119405,71.895622
	C6.313835,66.206680 7.897748,61.348179 10.020162,56.737564
	C16.710768,42.203259 23.832161,27.861996 30.241087,13.207350
	C31.667645,9.945381 30.861809,5.707116 31.041906,1.459179
	C36.354931,1.000000 41.709858,1.000000 47.532394,1.000000
z"/>

<!--    ㅎ-->
    <path fill="#000" opacity="1.000000" stroke="none"
          d="
M130.794464,68.941818
	C120.734406,73.197754 110.496758,72.013954 100.461235,71.692734
	C96.545486,71.567390 92.403206,69.900894 88.873459,67.993675
	C79.294952,62.818169 75.612518,51.374371 79.605667,40.774330
	C84.682137,27.298546 89.439781,23.993814 103.762947,23.995468
	C108.589851,23.996025 113.416962,23.969110 118.243614,24.004583
	C132.772446,24.111361 138.282288,28.292101 142.247025,42.170460
	C145.592392,53.880753 141.658813,63.382374 130.794464,68.941818
M124.353462,56.068241
	C132.277374,51.983429 131.296738,43.164604 124.784157,39.759274
	C115.798271,35.060688 106.414215,35.905422 97.429237,39.121967
	C94.976944,39.999866 92.461662,44.392384 92.399719,47.224968
	C92.337036,50.091442 94.586693,54.536819 97.029060,55.653286
	C105.561951,59.553913 114.658180,59.137951 124.353462,56.068241
z"/>
    <path fill="#000" opacity="1.000000" stroke="none"
          d="
M117.532059,1.000000
	C118.000000,3.128745 118.000000,5.257490 118.000000,8.130650
	C123.818497,8.130650 129.272339,8.394257 134.687668,8.050739
	C139.373367,7.753507 141.595703,9.146363 140.959625,14.138029
	C140.669693,16.413322 140.910355,18.756226 140.910355,21.490967
	C119.676476,21.490967 98.798599,21.490967 77.110580,21.490967
	C77.110580,18.123365 76.661713,14.613509 77.329422,11.330765
	C77.600082,10.000088 80.251526,8.357996 81.910683,8.249449
	C87.684181,7.871723 93.497543,8.103460 100.092461,8.103460
	C100.092461,5.727715 100.092461,3.812398 100.046234,1.448540
	C105.688042,1.000000 111.376083,1.000000 117.532059,1.000000
z"/>

  </g>
  <!--   입-->
  <path fill="none" opacity="1.000000" stroke="black" stroke-width="3" transform="scale(0.9, 0.9 ) translate(9, 0)"
        d="
M1.000000,84.454109
	C2.997618,84.032913 5.005230,84.209709 6.990981,84.071770
	C12.954576,83.657501 17.470955,83.828148 20.048086,91.384697
	C22.623989,98.937645 31.304468,100.529747 38.248508,102.927032
	C53.254490,108.107544 68.936676,107.600502 84.443573,106.975227
	C97.509102,106.448402 110.450630,104.093330 121.403259,96.205429
	C124.274551,94.137596 125.799767,90.258820 128.144638,87.375549
	C129.200287,86.077507 130.665207,84.409317 132.092911,84.251404
	C136.042923,83.814491 140.071060,84.083870 144.534149,84.037033
	C145.000000,87.030594 145.000000,90.061188 144.693848,93.713165
	C142.276108,97.659187 140.443558,101.206566 138.000839,104.266914
	C130.526016,113.631737 120.272217,118.358650 108.865211,120.957932
	C104.251945,122.009132 99.622231,122.988136 95.000000,124.000000
	C81.645775,124.000000 68.291542,124.000000 54.202477,123.690865
	C49.545372,122.863785 45.575863,122.577301 41.708950,121.788124
	C24.276054,118.230377 8.844182,111.646027 1.000000,94.000000
	C1.000000,90.969406 1.000000,87.938812 1.000000,84.454109
z"/>

</svg>